PathFileType	4	(x/y/z)	Passive_Pref0001.trc
DataRate	CameraRate	NumFrames	NumMarkers	Units	OrigDataRate	OrigDataStartFrame	OrigNumFrames
240	240	6	50	mm	240	234	311
Frame#	Time	R_AC			L_AC			HEAD			STERN			C7			L_IC			R_IC			L_ASIS			R_ASIS			L_GT			R_GT			R_PSIS			L_PSIS			SACRAL			L_LAT_KNEE			L_MED_KNEE			R_LAT_KNEE			R_MED_KNEE			L_LAT_ANK			L_MED_ANK			R_LAT_ANK			R_MED_ANK			L_THIGH_PROX_POST			L_THIGH_PROX_ANT			L_THIGH_DIST_ANT			L_THIGH_DIST_POST			R_THIGH_PROX_POST			R_THIGH_PROX_ANT			R_THIGH_DIST_ANT			R_THIGH_DIST_POST			L_SHANK_PROX_POST			L_SHANK_PROX_ANT			L_SHANK_DIST_ANT			L_SHANK_DIST_POST			R_SHANK_PROX_POST			R_SHANK_PROX_ANT			R_SHANK_DIST_ANT			R_SHANK_DIST_POST			L_HEEL_LAT			L_HEEL_SUP			L_HEEL_MED			R_HEEL_LAT			R_HEEL_SUP			R_HEEL_MED			L_1ST_MET			L_5TH_MET			L_TOE			R_1ST_MET			R_5TH_MET			R_TOE			
		X1	Y1	Z1	X2	Y2	Z2	X3	Y3	Z3	X4	Y4	Z4	X5	Y5	Z5	X6	Y6	Z6	X7	Y7	Z7	X8	Y8	Z8	X9	Y9	Z9	X10	Y10	Z10	X11	Y11	Z11	X12	Y12	Z12	X13	Y13	Z13	X14	Y14	Z14	X15	Y15	Z15	X16	Y16	Z16	X17	Y17	Z17	X18	Y18	Z18	X19	Y19	Z19	X20	Y20	Z20	X21	Y21	Z21	X22	Y22	Z22	X23	Y23	Z23	X24	Y24	Z24	X25	Y25	Z25	X26	Y26	Z26	X27	Y27	Z27	X28	Y28	Z28	X29	Y29	Z29	X30	Y30	Z30	X31	Y31	Z31	X32	Y32	Z32	X33	Y33	Z33	X34	Y34	Z34	X35	Y35	Z35	X36	Y36	Z36	X37	Y37	Z37	X38	Y38	Z38	X39	Y39	Z39	X40	Y40	Z40	X41	Y41	Z41	X42	Y42	Z42	X43	Y43	Z43	X44	Y44	Z44	X45	Y45	Z45	X46	Y46	Z46	X47	Y47	Z47	X48	Y48	Z48	X49	Y49	Z49	X50	Y50	Z50	

234	0.97397	437.31	1538.2	500.43	407.2	1556.8	98.18	482.73	1858.4	323.91	512.45	1495	302.94	361.46	1585.6	309.99	401.82	1129.3	138.21	422.35	1136.9	474.66	477.47	1043	168.69	486.71	1047.1	438.47	384.44	959.32	113.31	387.31	962.19	481.54	266.56	1040.2	347.2	263.94	1037.1	261	255.94	1004.9	303.29	492.58	566.79	110.36	525.43	558.99	244.72	442.49	545.13	440.47	445.75	550.31	305.12	193.54	235.66	145.53	186.27	239.67	227.18	341.64	97.604	377.38	374.03	119.54	275.33	465.67	803.82	108.53	527.45	816.04	136.96	546.25	745.43	135.7	489.83	730.54	109.29	362.63	809.85	457.38	421.84	817.57	483	424.85	742.66	471.25	374.13	737.4	447.48	463.21	520.71	123.77	523.39	510.64	132.14	485.46	455.9	147.13	430.07	467.91	128.23	374.58	389.4	437.64	431.75	382.49	431.13	419.06	308.98	416.52	363.73	313.39	421.19	105.75	216	146.24	107.86	246.38	179.53	94.913	220.87	216.01	264.9	60.035	336.94	269.3	87.264	301.02	293.46	58.503	276.96	274.36	85.19	250.17	260.48	90.407	136.34	327.52	72.973	216.28	507.84	43.081	294.88	462.42	36.513	407.68	556.17	47.164	353.7
235	0.97815	441.94	1539	500.6	411.92	1557.5	98.335	487.3	1859.2	323.86	517.05	1495.7	303.17	366.11	1586.4	310.16	406.55	1130.3	138.43	426.46	1137.7	474.89	482.21	1044.1	169.18	490.68	1047.6	438.99	389.63	960.31	113.43	390.77	962.91	481.55	270.82	1041.1	346.91	268.4	1037.9	260.7	260.25	1005.8	302.99	500.74	568.18	111.26	533.17	560.98	245.76	443.18	545.58	440.71	446.92	550.7	305.35	207.03	232.22	145.24	199.3	236.02	226.8	341.96	98.08	377.43	374.46	120.08	275.45	471.97	805.21	109.01	533.57	817.95	137.79	552.8	747.41	136.68	496.64	732.07	109.93	365.16	810.83	457.18	424.31	818.18	483.01	426.92	743.27	471.35	376.3	738.31	447.34	472.07	521.62	124.57	532.4	512.54	133.21	495.29	457.2	148.06	439.79	468.3	128.89	374.99	389.99	437.71	432.18	382.99	431.37	419.44	309.48	416.76	364.1	313.98	421.27	119.57	211.12	145.6	120.98	241.57	178.83	108.42	215.77	215.23	265.12	60.89	336.96	269.61	88.122	301.05	293.62	59.345	276.94	289.82	83.15	250.3	276.37	88.093	136.41	343.32	71.785	216.64	507.98	43.079	294.96	462.49	36.489	407.71	556.32	46.957	353.79
236	0.98233	446.55	1539.8	500.77	416.68	1558.3	98.48	491.87	1859.9	323.8	521.66	1496.4	303.39	370.76	1587.2	310.32	411.25	1131.2	138.65	430.56	1138.4	475.12	486.93	1045.1	169.65	494.65	1048.2	439.48	394.79	961.29	113.53	394.24	963.63	481.54	275.07	1042	346.62	272.86	1038.8	260.41	264.55	1006.7	302.69	508.81	569.55	112.19	540.8	562.95	246.83	443.85	546.05	440.95	448.07	551.11	305.57	220.63	228.73	144.96	212.44	232.31	226.42	342.26	98.567	377.5	374.9	120.62	275.57	478.19	806.58	109.51	539.62	819.83	138.56	559.26	749.35	137.67	503.36	733.57	110.59	367.7	811.81	456.99	426.8	818.79	483.01	428.99	743.88	471.44	378.47	739.24	447.21	480.87	522.51	125.4	541.33	514.45	134.32	505.08	458.5	149.01	449.46	468.67	129.58	375.4	390.6	437.77	432.59	383.5	431.6	419.8	310	417	364.46	314.59	421.35	133.55	206.15	144.94	134.24	236.67	178.13	122.07	210.59	214.44	265.35	61.757	336.99	269.94	88.996	301.07	293.79	60.202	276.93	305.42	81.123	250.42	292.41	85.803	136.49	359.25	70.638	217.02	508.12	43.084	295.04	462.56	36.467	407.75	556.47	46.758	353.87
237	0.98651	451.15	1540.6	500.93	421.46	1559	98.614	496.45	1860.6	323.75	526.26	1497.1	303.62	375.41	1587.9	310.46	415.93	1132.1	138.85	434.65	1139.1	475.32	491.63	1046.1	170.1	498.62	1048.7	439.94	399.91	962.24	113.64	397.72	964.35	481.53	279.33	1042.9	346.32	277.3	1039.6	260.12	268.85	1007.6	302.4	516.78	570.89	113.15	548.33	564.9	247.93	444.5	546.54	441.17	449.2	551.53	305.79	234.35	225.19	144.68	225.71	228.54	226.05	342.55	99.065	377.57	375.35	121.18	275.68	484.34	807.91	110.01	545.58	821.64	139.28	565.62	751.24	138.67	509.99	735.04	111.27	370.26	812.81	456.8	429.28	819.41	483	431.07	744.5	471.53	380.65	740.17	447.08	489.6	523.38	126.25	550.18	516.37	135.45	514.81	459.81	149.99	459.1	469.03	130.29	375.79	391.22	437.82	433	384.03	431.83	420.15	310.54	417.24	364.81	315.21	421.43	147.68	201.13	144.29	147.65	231.69	177.43	135.88	205.32	213.64	265.59	62.634	337.01	270.29	89.886	301.1	293.96	61.072	276.92	321.18	79.118	250.55	308.61	83.546	136.57	375.32	69.543	217.41	508.26	43.096	295.12	462.64	36.449	407.78	556.62	46.566	353.96
238	0.99069	455.73	1541.4	501.08	426.26	1559.7	98.739	501.04	1861.3	323.69	530.85	1497.7	303.83	380.06	1588.6	310.58	420.58	1132.9	139.04	438.74	1139.8	475.51	496.3	1047.1	170.54	502.58	1049.2	440.39	405	963.17	113.74	401.2	965.06	481.51	283.58	1043.8	346.03	281.74	1040.5	259.82	273.13	1008.5	302.11	524.67	572.22	114.14	555.76	566.82	249.06	445.15	547.03	441.39	450.32	551.96	306	248.19	221.63	144.41	239.08	224.73	225.69	342.83	99.572	377.65	375.8	121.75	275.81	490.41	809.21	110.53	551.46	823.4	139.94	571.9	753.09	139.69	516.54	736.49	111.97	372.83	813.8	456.63	431.78	820.03	482.99	433.15	745.12	471.62	382.84	741.11	446.95	498.26	524.22	127.13	558.95	518.28	136.62	524.5	461.11	151	468.7	469.38	131.03	376.17	391.86	437.87	433.38	384.58	432.06	420.5	311.09	417.47	365.14	315.85	421.5	161.96	196.06	143.63	161.2	226.65	176.73	149.84	199.99	212.83	265.84	63.519	337.04	270.64	90.791	301.13	294.13	61.951	276.91	337.07	77.147	250.69	324.96	81.335	136.67	391.51	68.507	217.81	508.4	43.115	295.2	462.72	36.432	407.82	556.77	46.381	354.05
239	0.99487	460.31	1542.1	501.23	431.09	1560.5	98.854	505.64	1861.9	323.63	535.45	1498.3	304.05	384.71	1589.4	310.7	425.21	1133.8	139.21	442.83	1140.5	475.69	500.95	1048	170.96	506.55	1049.7	440.81	410.05	964.08	113.84	404.68	965.78	481.48	287.82	1044.7	345.73	286.17	1041.3	259.53	277.41	1009.3	301.82	532.46	573.52	115.16	563.09	568.7	250.21	445.78	547.54	441.59	451.43	552.4	306.22	262.15	218.05	144.14	252.57	220.87	225.34	343.11	100.09	377.73	376.26	122.33	275.93	496.42	810.48	111.06	557.25	825.08	140.55	578.09	754.88	140.71	523	737.91	112.69	375.44	814.8	456.46	434.29	820.66	482.98	435.24	745.76	471.72	385.03	742.05	446.84	506.85	525.04	128.03	567.65	520.19	137.81	534.14	462.41	152.03	478.25	469.7	131.8	376.53	392.5	437.92	433.76	385.13	432.28	420.83	311.65	417.7	365.46	316.5	421.57	176.39	190.94	142.98	174.89	221.55	176.04	163.94	194.61	212.02	266.09	64.41	337.06	271.01	91.709	301.16	294.32	62.839	276.91	353.09	75.218	250.85	341.44	79.179	136.78	407.83	67.54	218.24	508.55	43.14	295.28	462.8	36.418	407.85	556.91	46.203	354.14
